<svg xmlns="http://www.w3.org/2000/svg" viewBox="0 0 64 64" role="img" aria-label="autopi">
  <!-- WR Blue disc + gold rim (rally / gold-wheel nod) -->
  <circle cx="32" cy="32" r="30" fill="#013C74"/>
  <circle cx="32" cy="32" r="30" fill="none" stroke="#E8B923" stroke-width="3"/>
  <!-- Magenta STI accent slash -->
  <path d="M12 44 L38 12 L46 16 L20 48 Z" fill="#C80E47"/>
  <!-- Original six-star cluster (Pleiades-inspired, not Subaru trademark art) -->
  <g fill="#E8B923">
    <path d="M32 18l1.1 3.4h3.6l-2.9 2.1 1.1 3.4-2.9-2.1-2.9 2.1 1.1-3.4-2.9-2.1h3.6z"/>
    <path d="M22 28l0.85 2.6h2.75l-2.22 1.6 0.85 2.6-2.23-1.62-2.22 1.62 0.85-2.6-2.22-1.6h2.74z"/>
    <path d="M42 28l0.85 2.6h2.75l-2.22 1.6 0.85 2.6-2.23-1.62-2.22 1.62 0.85-2.6-2.22-1.6h2.74z"/>
    <path d="M26 40l0.7 2.15h2.25l-1.82 1.32 0.7 2.15-1.83-1.33-1.82 1.33 0.7-2.15-1.82-1.32h2.24z"/>
    <path d="M38 40l0.7 2.15h2.25l-1.82 1.32 0.7 2.15-1.83-1.33-1.82 1.33 0.7-2.15-1.82-1.32h2.24z"/>
    <path d="M32 46l0.55 1.7h1.8l-1.45 1.05 0.55 1.7-1.45-1.05-1.45 1.05 0.55-1.7-1.45-1.05h1.8z"/>
  </g>
</svg>
